<svg xmlns="http://www.w3.org/2000/svg" viewBox="0 0 500 500" style="enable-background:new 0 0 500 500" xml:space="preserve"><path style="fill:#92e3a9" d="M451.665 116.959a172.588 172.588 0 0 0-5.246-8.216C422.142 73.072 381.726 48.65 342.448 37.59c-17.207-4.853-34.874-7.391-52.511-8.04-115.678-4.203-158.174 91.175-195.445 115.767C57.222 169.909.028 211.914 7.205 300.152c5.446 67.09 43.611 131.239 113.316 160.432a197.825 197.825 0 0 0 24.191 8.347c15.712 4.322 32.741 7.036 51.089 7.852 52.7 2.348 95.491-10.356 137.347-42.345 9.729-7.436 19.407-15.823 32.033-16.742 9.178-.668 17.879 2.629 8.286 11.499-11.275 10.425 1.734 30.929 30.356 16.684 47.803-23.792 67.467-75.123 76.731-127.319 11.372-64.07 5.86-143.746-28.889-201.601z"/><path style="opacity:.7;fill:#fff" d="M451.665 116.959a172.588 172.588 0 0 0-5.246-8.216C422.142 73.072 381.726 48.65 342.448 37.59c-17.207-4.853-34.874-7.391-52.511-8.04-115.678-4.203-158.174 91.175-195.445 115.767C57.222 169.909.028 211.914 7.205 300.152c5.446 67.09 43.611 131.239 113.316 160.432a197.825 197.825 0 0 0 24.191 8.347c15.712 4.322 32.741 7.036 51.089 7.852 52.7 2.348 95.491-10.356 137.347-42.345 9.729-7.436 19.407-15.823 32.033-16.742 9.178-.668 17.879 2.629 8.286 11.499-11.275 10.425 1.734 30.929 30.356 16.684 47.803-23.792 67.467-75.123 76.731-127.319 11.372-64.07 5.86-143.746-28.889-201.601z"/><path style="fill:#263238" d="M206.192 460.54c-3.701 0-7.53-.086-11.382-.259-16.665-.74-32.65-3.189-47.516-7.278a180.97 180.97 0 0 1-22.04-7.602C66.601 420.837 28.38 366.502 22.985 300.044c-2.785-34.241 4.791-63.049 23.159-88.075 15.514-21.136 36.192-36.283 56.228-49.502 13.067-8.622 24.731-21.675 38.237-36.789 31.751-35.531 71.268-79.751 143.519-79.751 2.214 0 4.477.042 6.728.123 17.019.626 33.382 3.123 48.622 7.422 39.15 11.023 74.262 34.861 93.935 63.768a155.856 155.856 0 0 1 4.673 7.321c34.672 57.728 36.579 137.15 26.804 192.228-9.686 54.573-27.593 89.351-55.959 108.2a29.774 29.774 0 0 0-1.636-6c-5.007-12.792-17.971-20.429-34.679-20.429-1.399 0-2.829.052-4.249.156-19.79 1.44-34.157 12.555-44.647 20.67-.898.694-1.793 1.388-2.69 2.073-35.363 27.029-70.781 39.081-114.838 39.081z"/><circle style="fill:#b2b2b2" cx="362.532" cy="100.873" r="4.694"/><circle style="fill:#b2b2b2" cx="441.073" cy="180.239" r="4.694"/><circle style="fill:#b2b2b2" cx="116.786" cy="402.599" r="4.694"/><circle style="fill:#b2b2b2" cx="402.476" cy="398.525" r="4.694"/><path style="fill:#b2b2b2" d="M248.488 60.018a2.68 2.68 0 1 1-5.358 0 2.68 2.68 0 0 1 5.358 0z"/><circle style="fill:#b2b2b2" cx="62.002" cy="221.827" r="4.694"/><circle style="fill:#b2b2b2" cx="400.24" cy="104.368" r="2.328"/><circle style="fill:#92e3a9" cx="86.944" cy="371.262" r="2.328"/><circle style="fill:#92e3a9" cx="430.606" cy="352.076" r="2.328"/><path style="fill:#92e3a9" d="M216.247 416.325a2.328 2.328 0 1 1-4.655 0 2.328 2.328 0 0 1 4.655 0z"/><path style="fill:#b2b2b2" d="M96.947 334.169a2.328 2.328 0 1 1-4.655 0 2.328 2.328 0 0 1 4.655 0zM193.363 445.776a2.328 2.328 0 1 1-4.655 0 2.328 2.328 0 0 1 4.655 0z"/><path style="fill:#92e3a9" d="M327.411 70.679a2.328 2.328 0 1 1-4.655 0 2.328 2.328 0 0 1 4.655 0z"/><path style="fill:#b2b2b2" d="M331.427 325.215a2.328 2.328 0 1 1-4.655 0 2.328 2.328 0 0 1 4.655 0zM438.316 234.726a2.328 2.328 0 1 1-4.655 0 2.328 2.328 0 0 1 4.655 0z"/><circle style="fill:#92e3a9" cx="57.33" cy="323.937" r="2.328"/><circle style="fill:#b2b2b2" cx="264.736" cy="429.46" r="2.328"/><circle style="fill:#92e3a9" cx="180.317" cy="338.646" r="2.328"/><path style="fill:#92e3a9" d="M335.495 150.622a2.328 2.328 0 1 1-4.655 0 2.328 2.328 0 0 1 4.655 0z"/><path style="fill:#92e3a9;stroke:#263238;stroke-miterlimit:10" d="M121.819 338.875v-49.062H62.156v-29.091l52.02-121.543h39.693v123.515h20.463v27.119h-20.463v49.062h-32.05zm-31.064-76.18h31.064v-86.781l-31.064 86.781zm153.592 79.139c-11.671 0-21.326-2.465-28.968-7.396-7.642-4.93-13.398-11.749-17.258-20.463-3.863-8.71-5.793-18.737-5.793-30.078V195.39c0-11.669 1.849-21.901 5.547-30.694 3.698-8.79 9.368-15.656 17.011-20.586 7.642-4.931 17.462-7.396 29.461-7.396 11.996 0 21.82 2.465 29.462 7.396 7.642 4.93 13.314 11.796 17.011 20.586 3.698 8.794 5.547 19.026 5.547 30.694v88.507c0 11.341-1.933 21.368-5.793 30.078-3.863 8.713-9.616 15.532-17.258 20.463-7.642 4.93-17.3 7.396-28.969 7.396zm0-29.338c5.093 0 8.876-1.56 11.341-4.685 2.465-3.12 4.106-6.902 4.93-11.34.82-4.438 1.233-8.792 1.233-13.067v-87.521c0-4.601-.37-9.161-1.109-13.683-.74-4.518-2.342-8.341-4.807-11.465-2.465-3.12-6.329-4.684-11.588-4.684-5.262 0-9.122 1.564-11.587 4.684-2.465 3.124-4.068 6.946-4.807 11.465a84.586 84.586 0 0 0-1.109 13.683v87.521c0 4.275.45 8.629 1.356 13.067.9 4.438 2.589 8.22 5.054 11.34 2.465 3.125 6.163 4.685 11.093 4.685zm133.379 26.379v-49.062h-59.665v-29.091l52.022-121.543h39.69v123.515h20.461v27.119h-20.461v49.062h-32.047zm-31.066-76.18h31.066v-86.781l-31.066 86.781z"/><path style="fill:#b2b2b2" d="M137.66 393.698v-40.007h14.472v2.914h-10.669v15.015h8.693v2.766h-8.693v16.496h10.767v2.815h-14.57zM157.367 393.698v-40.007h9.039c2.502 0 4.47.404 5.902 1.21 1.433.807 2.461 1.975 3.087 3.507.625 1.531.938 3.35.938 5.457 0 1.482-.165 2.882-.494 4.198-.33 1.318-.889 2.437-1.679 3.359-.79.922-1.91 1.532-3.359 1.827l6.125 20.448h-3.655l-5.878-19.657h-6.272v19.657h-3.754zm3.753-22.424h5.087c1.679 0 2.98-.279 3.902-.84.921-.56 1.58-1.383 1.975-2.47.395-1.087.593-2.452.593-4.099 0-2.47-.428-4.313-1.284-5.532-.857-1.218-2.552-1.827-5.087-1.827h-5.186v14.768zM182.654 393.698v-40.007h9.039c2.502 0 4.47.404 5.902 1.21 1.432.807 2.461 1.975 3.087 3.507.625 1.531.938 3.35.938 5.457 0 1.482-.165 2.882-.494 4.198-.33 1.318-.889 2.437-1.679 3.359-.79.922-1.91 1.532-3.359 1.827l6.125 20.448h-3.655l-5.878-19.657h-6.272v19.657h-3.754zm3.754-22.424h5.087c1.679 0 2.98-.279 3.902-.84.921-.56 1.58-1.383 1.975-2.47.395-1.087.593-2.452.593-4.099 0-2.47-.428-4.313-1.284-5.532-.857-1.218-2.552-1.827-5.087-1.827h-5.186v14.768zM217.376 394.192c-2.635 0-4.701-.519-6.199-1.556-1.499-1.037-2.552-2.486-3.161-4.346-.609-1.86-.914-3.992-.914-6.397v-16.595c0-2.436.321-4.551.963-6.346.642-1.795 1.712-3.186 3.211-4.174 1.498-.988 3.531-1.482 6.1-1.482 2.601 0 4.65.494 6.149 1.482 1.498.988 2.56 2.379 3.186 4.174.625 1.795.939 3.91.939 6.346v16.645c0 2.404-.305 4.527-.914 6.371-.61 1.845-1.655 3.285-3.136 4.322-1.483 1.037-3.557 1.556-6.224 1.556zm0-3.013c1.778 0 3.128-.354 4.05-1.062.921-.708 1.556-1.696 1.902-2.964.346-1.267.518-2.741.518-4.421v-18.126c0-1.68-.173-3.144-.518-4.396-.346-1.251-.98-2.214-1.902-2.89-.922-.674-2.272-1.012-4.05-1.012-1.745 0-3.087.338-4.025 1.012-.938.676-1.58 1.639-1.926 2.89-.346 1.252-.519 2.716-.519 4.396v18.126c0 1.68.173 3.154.519 4.421.346 1.268.988 2.256 1.926 2.964.938.708 2.279 1.062 4.025 1.062zM233.872 393.698v-40.007h9.039c2.501 0 4.469.404 5.902 1.21 1.431.807 2.461 1.975 3.087 3.507.624 1.531.938 3.35.938 5.457 0 1.482-.165 2.882-.493 4.198-.33 1.318-.889 2.437-1.68 3.359-.791.922-1.91 1.532-3.359 1.827l6.126 20.448h-3.655L243.9 374.04h-6.273v19.657h-3.755zm3.754-22.424h5.087c1.68 0 2.98-.279 3.902-.84.922-.56 1.58-1.383 1.975-2.47.395-1.087.593-2.452.593-4.099 0-2.47-.428-4.313-1.284-5.532-.856-1.218-2.552-1.827-5.088-1.827h-5.185v14.768zM269.236 393.698v-40.007h9.581c2.403 0 4.289.444 5.656 1.333 1.366.889 2.346 2.124 2.939 3.705.593 1.58.889 3.441.889 5.58 0 1.877-.305 3.614-.913 5.211a7.95 7.95 0 0 1-3.013 3.827c-1.4.956-3.235 1.432-5.507 1.432h-5.878v18.917h-3.754zm3.753-21.733h4.792c1.612 0 2.921-.238 3.926-.716 1.004-.477 1.737-1.276 2.198-2.396.461-1.118.691-2.634.691-4.544 0-2.041-.198-3.63-.592-4.766-.396-1.135-1.079-1.926-2.05-2.371-.972-.444-2.346-.667-4.125-.667h-4.84v15.46zM288.892 393.698l8.447-40.007h3.951l8.496 40.007h-3.704l-1.975-10.717h-9.533l-2.025 10.717h-3.657zm6.224-13.435h8.495l-4.297-21.584-4.198 21.584zM323.567 394.241c-2.503 0-4.47-.527-5.902-1.581-1.432-1.053-2.445-2.543-3.037-4.469-.593-1.926-.889-4.157-.889-6.692V365.89c0-2.569.287-4.791.864-6.668.576-1.876 1.596-3.334 3.062-4.371 1.465-1.038 3.532-1.556 6.199-1.556 2.402 0 4.304.444 5.705 1.334 1.398.889 2.412 2.189 3.037 3.902.625 1.712.939 3.803.939 6.272v1.383h-3.556v-1.383c0-1.909-.173-3.49-.519-4.742-.346-1.251-.947-2.189-1.803-2.815-.857-.625-2.124-.939-3.803-.939-1.811 0-3.178.395-4.099 1.185-.922.79-1.524 1.877-1.803 3.26-.28 1.383-.42 2.964-.42 4.742v16.448c0 1.944.173 3.605.519 4.988.346 1.383.988 2.437 1.926 3.162.938.725 2.263 1.087 3.976 1.087 1.646 0 2.921-.371 3.827-1.112.905-.741 1.539-1.802 1.902-3.185.362-1.383.543-3.063.543-5.038v-4.693h-5.927v-2.815h9.384v19.362h-2.421l-.444-4.544c-.493 1.548-1.309 2.783-2.444 3.704-1.137.921-2.742 1.383-4.816 1.383zM340.161 393.698v-40.007h14.471v2.914h-10.668v15.015h8.693v2.766h-8.693v16.496h10.767v2.815h-14.57z"/><g style="opacity:.3"><path d="M320.696 285.13c.045.039.087.079.133.117.174.141.361.272.564.394.049.029.103.055.153.083.172.096.356.185.551.267.066.028.131.057.2.083.251.096.518.183.809.256.045.011.096.019.142.03a9.92 9.92 0 0 0 1.111.191c.353.042.72.075 1.123.09h.004c1.363.051 2.766-.214 4.128-.755.681-.271 1.351-.61 2.001-1.014a13.683 13.683 0 0 0 1.877-1.401c.399-.352.784-.731 1.152-1.135 3.314-3.634 5.268-9.304 3.649-15.982a87.197 87.197 0 0 0-1.287-4.724c-.763-2.514-1.596-4.804-2.503-6.849a42.354 42.354 0 0 0-.739-1.58 34.173 34.173 0 0 0-1.896-3.362 26.814 26.814 0 0 0-1.364-1.953c-1.168-1.502-2.416-2.734-3.745-3.693a14.47 14.47 0 0 0-1.012-.668c-.084-.051-.177-.093-.266-.139l-7.42 17.337v19.246c.712 1.976 1.191 3.756 2.447 4.979l-.023-.003c.066.065.14.124.211.185zM296.367 279.963v-34.292c-.982.036-1.877.079-2.667.127.036-1.075.187-8.32-1.809-16.095-.095-6.881-2.919-13.131-7.448-17.408-.474-6.648-4.184-14.4-8.331-19.845.104.006.204.028.311.017 1.662-.18 2.697-2.254 3.429-5.836.1-.491.175-.952.234-1.396 1.311-.881 2.936-2.187 3.7-3.655.408-.785.804-2.083.98-3.581 1.325-.786 3.119-2.073 4.914-4.064 1.281-1.42 2.157-3.398 2.543-5.556a61.871 61.871 0 0 0-1.403-3.683c-2.216-5.269-5.157-9.831-8.79-13.714a16.624 16.624 0 0 0-3.395-1.343 13.875 13.875 0 0 0-3.286-.463c-3.082-.635-9.547-1.727-18.409-1.943-2.987-.073-5.672-.055-8.079.09-2.049-.877-4.287-1.268-6.591-1.018a12.943 12.943 0 0 0-3.979 1.104c-3.809-.997-7.655-1.258-10.811-.915-.759.082-1.509.18-2.241.285a29.086 29.086 0 0 0-.094-1.135 28.807 28.807 0 0 0-.327-2.163c.088-1.321.096-2.661.021-4.013-3.647 1.173-6.968 2.717-9.951 4.642-7.643 4.93-13.313 11.796-17.011 20.586-3.698 8.794-5.547 19.026-5.547 30.694v8.782c3.577 4.633 7.902 9.815 10.752 11.809.211.219.419.432.625.637.198 3.447.801 11.223 2.303 13.779 0 0-1.173 4.127.82 6.21-.606 4.623-1.417 16.197 3.382 27.591 3.729 8.855 10.096 13.633 16.635 15.154v-83.47c0-4.601.37-9.161 1.109-13.683.74-4.518 2.342-8.341 4.807-11.465 2.465-3.12 6.325-4.684 11.587-4.684 5.259 0 9.122 1.564 11.588 4.684 2.465 3.124 4.068 6.946 4.807 11.465a84.586 84.586 0 0 1 1.109 13.683v87.521a68.03 68.03 0 0 1-.165 4.451c.054.288.113.558.182.802l-.002-.001.006.015c.086.302.185.569.294.813.022.05.047.094.07.142.094.191.195.365.304.523.028.041.056.085.086.124.138.182.285.347.446.489l.016.012a3.454 3.454 0 0 0 .638.433c.161.087.329.168.506.239.032.013.061.028.094.04.212.081.437.155.673.222l.157.043c.197.054.402.107.615.158l.231.056.748.174c3.623.842 9.8-4.067 11.383-9.007.306-.956.546-2.085.736-3.282.199-.029.399-.056.597-.091 3.144.638 9.766 1.573 16.898.205zm-22.951-90.672-.029-.029.062-.428a5.52 5.52 0 0 0-.033.457zm.309-2.496.192-1.492.026.007c-.074.522-.149 1.023-.218 1.485zM153.868 207.262c-1.289 3.224-2.428 6.135-3.008 7.762-1.841 5.164-3.771 10.978-3.727 14.335.045 3.358 2.109 7.617 3.725 7.762 1.61.144 2.769-.935 3.01-3.184v-26.675z"/></g><path style="fill:#dedede;stroke:#263238;stroke-miterlimit:10" d="M269.134 217.184s.99 7.486.932 15.085c-.057 7.6 1.726 7.759 5.349 8.602s9.8-4.067 11.383-9.006c1.582-4.94 1.431-14.459 1.431-14.459l-19.095-.222z"/><path style="fill:#dedede;stroke:#263238;stroke-miterlimit:10" d="M285.668 226.336c-.163 3.373-1.165 8.779-6.174 11.443-4.245 2.257-7.936.268-8.962-.39.742 2.64 2.37 2.898 4.883 3.482 3.623.842 9.8-4.067 11.383-9.007 1.582-4.94 1.431-14.459 1.431-14.459l-2.23-.026c-.081 2.5-.221 6.688-.331 8.957zM251.9 224.353s5.991-.121 14.141-3.125 17.298-9.826 15.337-16.499c-1.961-6.674-12.581-8.522-16.769-8.067-4.189.455-9 1.684-9 1.684s.981 18.787-3.709 26.007z"/><path style="fill:#92e3a9;stroke:#263238;stroke-miterlimit:10" d="M247.958 227.077s5.354-1.111 8.601-5.349c3.248-4.238 4.447-11.078 2.714-15.658s-11.315 21.007-11.315 21.007z"/><path style="fill:#dedede;stroke:#263238;stroke-miterlimit:10" d="M215.825 183.242s-3.139 14.998 3.048 29.689c6.187 14.691 19.633 18.175 29.085 14.146s11.713-17.342 11.813-26.182c.099-8.84-.162-12.873-.162-12.873s-31.802 3.101-43.784-4.78z"/><path style="fill:#92e3a9;stroke:#263238;stroke-miterlimit:10" d="M214.672 179.129s-1.408 4.921 1.438 6.731c2.846 1.81 17.558 10.454 35.034 7.143 9.757-1.849 7.611-4.712 7.441-6.283-.171-1.571-43.913-7.591-43.913-7.591z"/><path style="fill:#fff;stroke:#263238;stroke-miterlimit:10" d="M212.287 163.672s.436 12.137 2.385 15.457c1.95 3.32 27.768 13.406 40.881 10.569 13.113-2.837 34.447-14.514 37.047-23.096 2.599-8.582-4.159-22.085-10.518-28.579s-9.148-7.78-9.148-7.78-15.58 20.764-34.964 27.638c-19.385 6.873-25.683 5.791-25.683 5.791zM315.214 194.342s13.72-5.375 19.198-2.085c5.479 3.29 9.667 10.958 12.546 22.83 2.879 11.872-5.537 20.556-12.806 20.286-7.269-.27-6.017-4.997-8.836-9.812-2.819-4.815-6.301-7.615-6.533-8.12-.231-.505 3.237-15.715-3.569-23.099z"/><path style="fill:#fff;stroke:#263238;stroke-miterlimit:10" d="M334.412 192.257c-1.464-.879-3.518-1.136-5.741-1.045 2.775 2.055 8.261 7.075 11.848 16.628 4.969 13.234 2.723 20.189.177 22.761-2.546 2.572-7.918 3.509-10.244 3.232l-1.302-.155c.996.977 2.49 1.603 5.001 1.696 7.27.27 15.685-8.414 12.806-20.286-2.878-11.873-7.066-19.542-12.545-22.831z"/><path style="fill:#fff;stroke:#263238;stroke-miterlimit:10" d="M286.206 228.043s12.941 3.715 24.954-1.121c12.012-4.837 19.089-12.846 16.437-22.623-2.651-9.778-7.633-10.119-18.568-9.991-10.934.128-13.128 1.073-13.128 1.073s-.357 27.586-9.695 32.662z"/><ellipse transform="rotate(-84.606 278.426 179.172)" style="fill:#92e3a9;stroke:#263238;stroke-miterlimit:10" cx="278.426" cy="179.179" rx="23.963" ry="22.12"/><ellipse transform="rotate(-84.606 285.16 207.048)" style="fill:#92e3a9;stroke:#263238;stroke-miterlimit:10" cx="285.162" cy="207.054" rx="21.736" ry="20.064"/><path style="fill:#fff;stroke:#263238;stroke-miterlimit:10" d="M302.36 194.679s.9-19.346-8.554-29.974-30.937-1.937-34.504 13.99c-3.567 15.927 3.974 39.831 13.827 46 9.853 6.17 18.204.141 23.808-8.414 5.604-8.554 5.423-21.602 5.423-21.602z"/><path style="fill:#dedede;stroke:#263238;stroke-miterlimit:10" d="M168.846 140.485s-7.48 18.106-9.321 23.27c-1.841 5.164-3.771 10.978-3.727 14.336.045 3.358 2.108 7.617 3.725 7.762 1.617.145 2.78-.942 3.014-3.21.234-2.267.131-3.217 1.277-4.462 1.146-1.245 4.72-3.715 5.178-3.925.458-.21.805 1.514-.272 3.392s-3.454 3.578-1.965 5.497c1.49 1.92 4.448-.323 6.034-1.937 1.586-1.613 3.21-4.352 3.867-7.145.657-2.793.338-8.683.338-8.683l13.215-12.484c.001 0-17.521-2.1-21.363-12.411z"/><path style="fill:none;stroke:#263238;stroke-miterlimit:10" d="M169.673 176.103s-.2 2.584 4.617 2.701M156.951 173.962s1.341 4.978 6.863 4.218M156.514 180.903s3.263 2.53 5.747-.212M163.294 156.059s-.436 9.921 13.701 9.321"/><path style="fill:#92e3a9;stroke:#263238;stroke-miterlimit:10" d="M172.586 135.115s-3.516.062-3.74 5.37c-.224 5.308 4.028 13.493 12.181 14.849 8.154 1.356 13.228-3.519 14.715-7.523s-17.575-15.864-23.156-12.696z"/><path style="fill:#dedede;stroke:#263238;stroke-miterlimit:10" d="M181.745 120.67s-8.639 10.386-10.146 15.673c-1.507 5.288 2.266 14.965 11.844 16.167 9.578 1.201 15.275-6.783 15.275-6.783l-16.973-25.057z"/><path style="fill:#92e3a9;stroke:#263238;stroke-miterlimit:10" d="M186.691 112.286s-6.174 5.22-6.602 13.692c-.428 8.472 7.374 18.24 17.553 17.302 10.178-.936-2.569-31.399-10.951-30.994z"/><path style="fill:#92e3a9;stroke:#263238;stroke-miterlimit:10" d="M190.945 118.563s-4.531 5.456-1.934 14.621c2.597 9.165 9.071 14.226 9.071 14.226s12.525 18.014 17.792 20.805c5.267 2.79 14.566 2.901 33.43-4.752 18.864-7.654 26.292-18.868 29.189-24.627 2.897-5.759-14.072-32.257-19.934-36.104-5.862-3.847-13.524-5.096-19.062-4.494-5.539.602-10.675 1.96-10.675 1.96l-37.877 18.365z"/><path style="fill:#fff;stroke:#263238;stroke-miterlimit:10" d="M187.594 115.551s-4.531 5.456-1.934 14.621c2.597 9.165 9.071 14.226 9.071 14.226s12.525 18.014 17.792 20.805c5.267 2.79 14.566 2.901 33.43-4.752s26.292-18.868 29.189-24.627-14.072-32.257-19.934-36.104c-5.862-3.847-13.523-5.096-19.063-4.494-5.539.602-10.675 1.96-10.675 1.96l-37.876 18.365z"/><circle transform="rotate(-74.097 205.499 97.454)" style="fill:#92e3a9;stroke:#263238;stroke-miterlimit:10" cx="205.487" cy="97.452" r="28.489"/><circle transform="rotate(-51.737 201.384 90.033)" style="fill:#ababab;stroke:#263238;stroke-miterlimit:10" cx="201.391" cy="90.036" r="32.17"/><path style="fill:#263238;stroke:#263238;stroke-miterlimit:10" d="M223.458 94.586c.333-.67.762-1.86.638-3.39-.197-2.415-2.907-6.874-4.038-8.081s-2.863.216-2.863.216l-1.999-3.592c-4.82-8.662-15.749-11.776-24.411-6.956-8.662 4.82-11.776 15.749-6.956 24.411l4.145 7.448-2.321-3.758s-2.123.722-1.693 2.319c.43 1.597 2.79 6.251 4.739 7.69a6.392 6.392 0 0 0 3.455 1.26l5.469 9.827c2.358.276 4.782.303 7.243.036 10.827-1.176 19.805-7.601 24.697-16.462l-6.105-10.968z"/><path style="fill:#fff;stroke:#263238;stroke-miterlimit:10" d="M215.037 85.593c-3.642-6.544-11.9-8.897-18.444-5.255l-2.45 1.364c-6.545 3.642-8.898 11.9-5.256 18.444l12.274 22.056c1.223.01 2.459-.049 3.704-.184 9.61-1.044 17.756-6.227 22.888-13.574l-12.716-22.851z"/><path style="fill:#263238" d="M199.953 98.95c.461.828.429 1.725-.072 2.004-.5.278-1.28-.167-1.741-.995-.461-.828-.429-1.725.072-2.004.501-.278 1.28.167 1.741.995zM210.117 93.294c.461.828.429 1.725-.072 2.004-.5.278-1.28-.167-1.74-.995-.461-.828-.429-1.725.072-2.004.5-.278 1.279.167 1.74.995z"/><path style="fill:none;stroke:#263238;stroke-miterlimit:10" d="m205.126 94.637 5.225 6.502-4.751 2.185"/><path style="fill:#263238" d="M212.878 106.504a1.703 1.703 0 1 1-2.979 1.657 1.703 1.703 0 1 1 2.979-1.657z"/><path style="fill:none;stroke:#263238;stroke-miterlimit:10" d="M192.877 97.782s.757-3.175 4.965-3.451M204.403 90.45s1.108-3.37 5.549-2.4M207.383 117.25s3.546 1.01 6.039.541 4.498-1.815 5.432-3.023c.934-1.208 2.197-5.124 2.197-5.124"/><path style="fill:#fff;stroke:#263238;stroke-miterlimit:10" d="M177.723 108.62c-1.919-17.663 10.844-33.537 28.507-35.456 10.202-1.108 19.802 2.689 26.466 9.492-3.657-15.595-18.449-26.376-34.779-24.602-17.663 1.919-30.426 17.793-28.507 35.456a32.025 32.025 0 0 0 8.99 19.015 32.352 32.352 0 0 1-.677-3.905z"/><ellipse transform="rotate(-6.2 252.672 111.293)" style="fill:#92e3a9;stroke:#263238;stroke-miterlimit:10" cx="252.702" cy="111.305" rx="14.484" ry="16.364"/><path style="fill:#fff;stroke:#263238;stroke-miterlimit:10" d="M286.039 98.368s-7.792-2.095-20.434-2.403c-12.642-.308-20.073.92-22.472 7.204-2.399 6.285-1.855 16.452 5.934 19.809 4.349 1.874 10.733.795 15.381-.27 4.647-1.065 16.04-5.805 19.622-11.518 3.582-5.713 3.654-10.204 1.969-12.822z"/><path style="fill:#92e3a9;stroke:#263238;stroke-miterlimit:10" d="M299.273 107.997s-4.18-7.531-11.973-9.626c-7.792-2.095-14.941 3.024-18.183 7.999-3.242 4.975-1.8 6.64-1.8 6.64s11.426-5.724 17.335-6.786c5.907-1.063 14.621 1.773 14.621 1.773z"/><path style="fill:#fff;stroke:#263238;stroke-miterlimit:10" d="M267.027 118.084s-1.833-5.264 5.551-12.09 20.958-4.378 25.376.185c4.418 4.563 3.891 12.606.39 16.488-3.501 3.883-7.01 5.104-7.01 5.104s-6.877-11.72-24.307-9.687z"/><path style="fill:#fff;stroke:#263238;stroke-miterlimit:10" d="M260.865 128.42s2.833-7.452 6.162-10.336c3.329-2.883 13.283-4.105 20.705-1.549 7.422 2.556 6.109 11.104 4.719 13.777-1.391 2.673-5.641 4.815-5.641 4.815l-25.945-6.707z"/><path style="fill:#fff;stroke:#263238;stroke-miterlimit:10" d="M261.714 127.207s-1.508.304-3.019 1.869c-1.511 1.565-1.99 2.318-5.024 4.048s-6.249 1.799-5.057 5.032c1.192 3.233 5.622 2.751 7.807 2.234 2.185-.518 3.079-1.315 4.759-2.618 1.68-1.303 2.947-10.267 3.041-10.697.094-.431-2.507.132-2.507.132z"/><path style="fill:#fff;stroke:#263238;stroke-miterlimit:10" d="M269.657 124.243s-4.458-1.057-6.646.722c-2.188 1.779-2.005 8.623-1.831 12.807.174 4.184 1.658 7.525 3.256 8.052 1.598.527 3.245.208 3.877-.421.632-.629-.03-6.721.413-11.672.443-4.952.931-9.488.931-9.488z"/><path style="fill:#fff;stroke:#263238;stroke-miterlimit:10" d="M269.657 124.243s-1.996 4.84-2.577 9.806c-.581 4.966 2.109 11.678 3.154 12.266s3.967.41 4.647-1.065c.68-1.475.183-6.487.261-9.426.077-2.939 1.492-9.257 1.282-11.195-.211-1.939-4.578-2.165-6.767-.386z"/><path style="fill:#fff;stroke:#263238;stroke-miterlimit:10" d="M276.424 124.628s2.664-1.27 4.599-.219 2.39 3.943 2.125 5.373c-.265 1.43-1.162 9.932-1.783 11.961-.62 2.029-2.191 3.04-3.468 2.898-1.276-.142-2.149-1.728-2.344-3.528-.196-1.8-.411-5.29-.411-5.29l1.282-11.195z"/><path style="fill:#fff;stroke:#263238;stroke-miterlimit:10" d="M283.138 127.121s3.597.87 4.656 1.596c1.059.725 1.454 3.064.722 6.646s-1.767 5.656-3.429 5.836c-1.661.181-3.01-1.914-3.007-3.176.004-1.261 1.374-7.994 1.058-10.902z"/><path style="fill:#92e3a9;stroke:#263238;stroke-miterlimit:10" d="M235.675 129.827c2.251 3.637 1.455 8.207-1.777 10.207-3.232 2.001-7.678.675-9.929-2.962-2.251-3.636-1.455-8.206 1.777-10.207 3.233-2 7.678-.674 9.929 2.962z"/><path style="fill:#263238" d="M217.954 142.07c1.578 2.549 1.02 5.753-1.246 7.155-2.266 1.403-5.382.473-6.96-2.076-1.578-2.549-1.02-5.753 1.246-7.155 2.266-1.403 5.382-.473 6.96 2.076z"/><path style="fill:#ababab;stroke:#263238;stroke-miterlimit:10" d="M232.463 148.159c1.578 2.549 1.02 5.752-1.246 7.155-2.266 1.402-5.382.473-6.96-2.076-1.578-2.549-1.02-5.752 1.246-7.155 2.266-1.402 5.382-.473 6.96 2.076z"/></svg>