<svg xmlns="http://www.w3.org/2000/svg" xmlns:xlink="http://www.w3.org/1999/xlink" viewBox="0 0 500 500" style="enable-background:new 0 0 500 500" xml:space="preserve"><path style="fill:#c6ff00" d="M51.179 296.873s6.9 60.202 58.061 85.919 101.275.698 147.281-5.33c24.093-3.156 46.435 8.69 70.059 11.17 75.537 7.929 134.816-81.085 124.182-146.564-9.205-56.686-45.428-96.694-111.431-125.24-66.004-28.546-111.404-51.26-188.07-24.416C74.595 119.256 45.713 218.927 51.179 296.873z"/><path style="opacity:.8;fill:#fff" d="M51.179 296.873s6.9 60.202 58.061 85.919 101.275.698 147.281-5.33c24.093-3.156 46.435 8.69 70.059 11.17 75.537 7.929 134.816-81.085 124.182-146.564-9.205-56.686-45.428-96.694-111.431-125.24-66.004-28.546-111.404-51.26-188.07-24.416C74.595 119.256 45.713 218.927 51.179 296.873z"/><path style="fill:#b5b5b5" d="M304.311 383.86h145.291V150.917H304.311V383.86zm75.809-56.008h63.764v-5.647H380.12v-51.992h63.764v-5.647H380.12V213.66h63.764v-5.647H380.12v-51.449h64.177v221.649H380.12v-50.361zm-70.504-171.288h65.198v51.449h-65.198v-51.449zm0 57.096h65.198v50.905h-65.198V213.66zm0 56.552h65.198v51.992h-65.198v-51.992zm0 57.64h65.198v50.362h-65.198v-50.362zM449.109 145.582c-1.628-18.058-9.904-34.784-23.302-47.098-13.483-12.391-31-19.215-49.325-19.215-18.325 0-35.843 6.824-49.326 19.215-13.398 12.314-21.673 29.039-23.302 47.098l-.343 3.806h145.942l-.344-3.806zm-137.848-3.179c1.982-13.453 7.909-25.438 16.532-34.852l40.967 34.852h-57.499zm61.026-6.168-39.49-33.596c10.657-9.385 24.383-15.309 39.49-16.241v49.837zm6.985-49.919c14.263.583 27.355 5.617 37.878 13.821l-37.878 35.583V86.316zm3.085 56.087 40.086-37.656c10.099 9.782 17.073 22.829 19.258 37.656h-59.344z"/><path style="fill:#263238" d="M134.037 302.729c-3.269.775-5.974 2.659-8.288 5.074-1.95 2.036-3.576 4.37-4.995 6.8a56.788 56.788 0 0 0-2.485 4.795c-.493 1.064-.862 2.395-1.33 3.61a71.982 71.982 0 0 0-1.9 3.226c2.012-7.205 8.46-20.471 8.573-24.246.123-4.101-3.808 2.027-6.021 10.349-1.671 6.284-2.51 11.98-2.82 14.394a27.98 27.98 0 0 0-.614 1.22c-.396.844-1.085 2.272-2.001 4.132 1.952-6.12 2.734-13.39 1.524-14.291-1.746-1.302-2.377 1.892-2.375 7.781.001 4.636-1.463 10.221-2.086 12.389a705.287 705.287 0 0 1-3.649 7.111c1.38-4.411 2.183-10.763 2.938-15.518 1.1-6.927.629-9.083-1.612-5.759-2.241 3.323-1.851 8.154-1.314 14.059.426 4.683-1.278 9.299-2.002 11.01a524.157 524.157 0 0 1-5.295 9.774c1.11-2.415 2.455-6.118 2.886-10.566.775-8.008-.254-15.355-2.1-13.269-1.847 2.086-.765 7.651-.968 14.426-.179 5.982-1.167 11.102-1.396 12.22l-.554.974c.84-3.382.797-6.949.542-10.431.371-1.343.241-2.192-.203-2.606-.064-1.506.061-3.773-.584-4.927-1.614-2.886-3.389 1.007-3.405 2.536-.012 1.176.087 2.347.238 3.514a8.991 8.991 0 0 0-1.618 1.994 35.11 35.11 0 0 0-.772 1.367c.03-.484.057-.971.076-1.464.043-1.143-.136-2.707-.799-3.77.941-1.997 1.754-4.046 2.093-6.15.115-.716.156-1.488-.184-2.132-.552-1.046-1.542-1.251-2.584-.698-3.08 1.634-3.905 5.553-4.249 8.694-.298 2.72-.892 5.352-1.601 7.998a368.861 368.861 0 0 0-1.544 5.981c-.265-1.647-.584-3.253-.973-4.727a492.236 492.236 0 0 0-1.003-3.748c-.181-2.367-.132-7.306 2.479-12.665 3.641-7.476 6.267-10.972 3.75-11.134-2.517-.162-6.183 3.773-6.706 9.933-.341 4.02-.525 8.104-.241 11.253a417.955 417.955 0 0 0-2.409-8.322c-.328-1.598-.84-5.325.456-9.154 1.717-5.072 6.848-14.095 4.147-13.384-2.7.711-5.943 5.937-6.3 11.476-.194 3.017.384 6.27.951 8.607a744.4 744.4 0 0 0-1.88-6.035c-.285-.9-.577-1.853-.872-2.837a12.692 12.692 0 0 0-.077-.505c-.215-1.798-.28-5.15 1.483-8.327 2.574-4.637 7.38-8.625 4.542-9.693-2.838-1.067-7.117 6.494-7.36 10.27-.086 1.338.086 2.867.343 4.284a29.212 29.212 0 0 0-.346-.884 565.577 565.577 0 0 1-1.72-6.195c-.117-1.537.005-4.373 1.636-8.111 2.52-5.779 5.727-12.397 2.459-10.712-2.642 1.362-5.493 9.16-4.925 15.74-.229-.857-.425-1.601-.582-2.197-.433-3.776-1.243-12.655-.024-17.944.814-3.535 2.132-6.87 2.547-10.501.043-.376.077-.769-.063-1.121-.879-2.193-3.73 2.069-4.198 2.773-1.86 2.798-2.552 6.02-2.594 9.365-.036 2.819.368 5.635.99 8.379a57.028 57.028 0 0 0 1.456 5.201c.366 1.114 1.004 2.339 1.492 3.546.247 1.247.522 2.512.813 3.654-3.446-6.639-7.787-20.736-10.281-23.573-2.709-3.081-1.4 4.081 2.661 11.673 3.068 5.734 6.342 10.47 7.762 12.446.126.467.254.909.384 1.311.286.887.757 2.401 1.357 4.386-2.75-5.806-7.14-11.652-8.639-11.486-2.164.24-.446 3.005 3.574 7.308 3.165 3.388 5.907 8.469 6.93 10.479a712.144 712.144 0 0 1 2.186 7.687c-2.001-4.166-5.749-9.357-8.443-13.348-3.924-5.814-5.739-7.068-5.109-3.109.63 3.959 4.212 7.223 8.634 11.173 3.507 3.133 5.412 7.67 6.051 9.415a522.45 522.45 0 0 1 2.8 10.757c-.836-2.523-2.381-6.147-5.102-9.692-4.898-6.382-10.665-11.051-10.591-8.265.074 2.786 4.662 6.114 9.138 11.205 3.951 4.495 6.724 8.911 7.319 9.885l.26 1.09c-2.04-3.666-5.194-6.66-8.293-9.422-1.091-.973-2.742-3.092-4.146-3.541-3.149-1.008-1.79 3.049-.758 4.177 3.369 3.684 8.105 5.95 11.216 9.815a34.75 34.75 0 0 1 3.141 4.648c.214 1.269.382 2.455.511 3.562-1.189-1.183-3.589-3.093-3.761-3.209-3.803-2.561-6.007-6.063-8.932-9.442-.878-1.014-2.374-2.253-3.783-2.317-1.963-.09-2.593 2.012-2.036 3.656 2.303 6.801 10.976 7.094 16.09 10.628 1.593 1.101 2.281 1.758 2.567 2.08.239 2.576.256 4.662.172 6.315H70.056v4.875h3.472l2.821 17.341h23.364l2.822-17.341h3.471v-4.875H88.428c.803-.966 1.658-2.023 2.524-3.138l3.701.111s12.832.563 17.548-1.972c4.716-2.536.506-4.982-3.994-3.689-4.5 1.293-13.365 5.31-15.326 5.251l-1.66-.05a91.621 91.621 0 0 0 2.707-3.691 83.721 83.721 0 0 0 10.407-3.32c3.698-1.455 7.968-2.639 11.145-5.103.573-.444 1.129-.981 1.32-1.683.31-1.141-.273-1.967-1.412-2.274-3.366-.907-6.645 1.394-9.039 3.455-2.074 1.785-4.305 3.303-6.629 4.754a361.867 361.867 0 0 0-5.21 3.318c.93-1.385 1.793-2.776 2.515-4.119.636-1.182 1.24-2.316 1.825-3.424 1.483-1.854 4.89-5.43 10.455-7.566 7.763-2.979 12.069-3.743 10.34-5.579-1.73-1.836-7.095-1.462-11.68 2.684-2.993 2.706-5.914 5.565-7.856 8.061a412.501 412.501 0 0 0 3.918-7.727c.85-1.392 3.021-4.465 6.581-6.38 4.716-2.536 14.624-5.629 12.166-6.952-2.459-1.323-8.396.284-12.437 4.089-2.201 2.073-3.998 4.845-5.179 6.94a708.586 708.586 0 0 0 2.744-5.694c.407-.852.843-1.748 1.299-2.669.097-.136.193-.276.288-.422 1.069-1.461 3.31-3.955 6.767-5.074 5.046-1.633 11.281-1.268 9.935-3.985-1.346-2.717-9.633-.11-12.388 2.484-.976.919-1.894 2.154-2.673 3.365.12-.288.236-.582.351-.882a565.2 565.2 0 0 1 2.97-5.701c.964-1.203 2.988-3.193 6.731-4.812 5.786-2.503 12.647-5.153 9.107-6.151-2.861-.807-10.266 2.946-14.342 8.144.418-.783.782-1.461 1.074-2.003 2.261-3.055 7.728-10.098 12.229-13.132 3.007-2.028 6.247-3.566 9.028-5.937.287-.245.581-.51.718-.862.855-2.207-4.137-1.038-4.959-.843zm-52.321 60.623a82.618 82.618 0 0 0 3.557-6.013c.424 1.216.974 2.423 1.549 3.621-1.364 2.79-2.606 5.215-3.319 5.841l-1.247 1.096a90.406 90.406 0 0 0-.54-4.545zm8.509 8.083a47.69 47.69 0 0 1-2.946 3.47H82.72c-.074-1.853-.2-4.136-.421-6.569l2.781-2.445s1.216-1.04 2.864-2.607c.774 1.635 1.471 3.259 1.825 4.878.412 1.893.466 2.843.456 3.273zm3.779-9.612a34.745 34.745 0 0 1-.876 5.541 68.8 68.8 0 0 1-2.058 2.952c-.062-1.676-.512-4.71-.559-4.912a21.056 21.056 0 0 1-.512-4.14c1.285-1.308 2.63-2.771 3.784-4.227.216 1.593.338 3.187.221 4.786z"/><path style="fill:#fff;stroke:#263238;stroke-width:1.1483;stroke-linecap:round;stroke-linejoin:round;stroke-miterlimit:10" d="m368.02 363.307 16.186 26.077c2.063 3.323-.327 7.62-4.239 7.62h-74.111 41.046c3.901 0 6.293-4.275 4.251-7.599l-15.668-25.516 32.535-.582z"/><path style="fill:#263238;stroke:#263238;stroke-width:1.1483;stroke-linecap:round;stroke-linejoin:round;stroke-miterlimit:10" d="m368.02 363.307-32.535.581 6.025 9.811h32.96z"/><path style="fill:#fff;stroke:#263238;stroke-width:1.1483;stroke-linecap:round;stroke-linejoin:round;stroke-miterlimit:10" d="M281.461 369.117H413.91a2.912 2.912 0 0 0 2.912-2.912V255.252a2.912 2.912 0 0 0-2.912-2.912H281.461a2.912 2.912 0 0 0-2.912 2.912v110.953a2.912 2.912 0 0 0 2.912 2.912z"/><path style="fill:#fff;stroke:#263238;stroke-width:1.1483;stroke-linecap:round;stroke-linejoin:round;stroke-miterlimit:10" d="M276.232 369.117h132.449a2.912 2.912 0 0 0 2.912-2.912V255.252a2.912 2.912 0 0 0-2.912-2.912H276.232a2.912 2.912 0 0 0-2.912 2.912v110.953a2.913 2.913 0 0 0 2.912 2.912z"/><path style="fill:#263238;stroke:#263238;stroke-width:1.1483;stroke-linecap:round;stroke-linejoin:round;stroke-miterlimit:10" d="M277.968 252.34h128.977a4.648 4.648 0 0 1 4.648 4.648v91.213H273.321v-91.213a4.648 4.648 0 0 1 4.647-4.648z"/><path transform="rotate(-180 342.457 299.4)" style="fill:#fff;stroke:#263238;stroke-width:1.1483;stroke-linecap:round;stroke-linejoin:round;stroke-miterlimit:10" d="M279.13 256.988h126.653v84.822H279.13z"/><path style="fill:#fff;stroke:#263238;stroke-width:1.1483;stroke-linecap:round;stroke-linejoin:round;stroke-miterlimit:10" d="M237.74 391.164h4.022v1.341h-4.022zM243.103 391.164h4.023v1.341h-4.023zM248.466 391.164h4.022v1.341h-4.022zM253.829 391.164h4.023v1.341h-4.023zM259.193 391.164h4.022v1.341h-4.022zM264.556 391.164h4.023v1.341h-4.023zM269.919 391.164h4.022v1.341h-4.022zM275.283 391.164h4.023v1.341h-4.023zM280.646 391.164h4.023v1.341h-4.023zM286.009 391.164h4.023v1.341h-4.023zM291.373 391.164h4.022v1.341h-4.022zM296.736 391.164h4.022v1.341h-4.022zM302.099 391.164h4.022v1.341h-4.022zM307.463 391.164h4.023v1.341h-4.023zM312.826 391.164h4.022v1.341h-4.022zM318.189 391.164h4.023v1.341h-4.023zM323.553 391.164h4.022v1.341h-4.022zM328.916 391.164h4.023v1.341h-4.023zM334.279 391.164h4.023v1.341h-4.023zM339.642 391.164h4.023v1.341h-4.023zM345.006 391.164h4.023v1.341h-4.023zM235.664 392.699h116.293v4.335H235.664z"/><path style="fill:#263238;stroke:#263238;stroke-width:1.1483;stroke-linecap:round;stroke-linejoin:round;stroke-miterlimit:10" d="M323.59 392.699h28.367v4.335H323.59z"/><path style="fill:#263238" d="m294.254 309.478 17.796-42.086h10.677v42.086h4.627v8.897h-4.627v11.3h-9.609v-11.3h-18.863v-8.897zm18.863 0v-23.402l-9.876 23.402h9.876zM331.005 282.34c0-9.966 5.249-15.66 14.859-15.66 9.609 0 14.859 5.695 14.859 15.66v32.388c0 9.966-5.249 15.661-14.859 15.661-9.609 0-14.859-5.694-14.859-15.661V282.34zm9.786 33.011c0 4.449 1.958 6.139 5.072 6.139s5.072-1.69 5.072-6.139v-33.634c0-4.449-1.958-6.139-5.072-6.139s-5.072 1.691-5.072 6.139v33.634zM373.092 275.222c7.563 0 9.254-3.648 10.767-7.83h6.584v62.284h-9.788v-47.514h-7.563v-6.94zM293.127 419.634c0 1.469.583 2.354 1.911 2.354 1.305 0 1.887-.885 1.887-2.354v-12.468h1.701v12.375c0 2.47-1.142 4.124-3.658 4.124-2.494 0-3.636-1.654-3.636-4.124v-12.375h1.794v12.468zM302.027 423.48h-1.632v-16.313h2.308l3.775 11.793v-11.793h1.608v16.313h-1.887l-4.172-13.19v13.19zM311.79 420.194l-.629 3.286h-1.678l3.122-16.313h2.634l3.122 16.313h-1.818l-.629-3.286h-4.124zm.234-1.562h3.636l-1.841-9.414-1.795 9.414zM321.506 419.634c0 1.469.583 2.354 1.911 2.354 1.305 0 1.887-.885 1.887-2.354v-12.468h1.701v12.375c0 2.47-1.142 4.124-3.658 4.124-2.494 0-3.636-1.654-3.636-4.124v-12.375h1.794v12.468zM331.153 423.48v-14.658h-3.007v-1.655h7.807v1.655h-3.006v14.658h-1.794zM339.005 416.139v7.341h-1.818v-16.313h1.818v7.341h4.009v-7.341h1.818v16.313h-1.818v-7.341h-4.009zM346.554 411.105c0-2.494 1.235-4.102 3.729-4.102 2.516 0 3.751 1.608 3.751 4.102v8.436c0 2.47-1.235 4.101-3.751 4.101-2.494 0-3.729-1.63-3.729-4.101v-8.436zm1.794 8.529c0 1.492.629 2.354 1.935 2.354 1.328 0 1.933-.862 1.933-2.354v-8.622c0-1.468-.605-2.354-1.933-2.354-1.305 0-1.935.886-1.935 2.354v8.622zM359.392 407.167c2.564 0 3.636 1.305 3.636 3.729v1.329c0 1.794-.629 2.913-2.027 3.355 1.491.443 2.051 1.655 2.051 3.402v2.541c0 .722.024 1.397.326 1.957h-1.841c-.21-.465-.303-.885-.303-1.982v-2.564c0-1.84-.862-2.422-2.377-2.422h-1.282v6.967h-1.818v-16.313h3.635zm-.467 7.69c1.446 0 2.308-.466 2.308-2.237v-1.562c0-1.467-.536-2.236-1.887-2.236h-1.772v6.035h1.351zM366.754 407.167v16.313h-1.818v-16.313h1.818zM375.772 423.48h-7.41v-1.632l5.592-13.026h-5.337v-1.655h7.202v1.632l-5.617 13.027h5.57v1.654zM383.252 414.391v1.632h-3.986v5.803h4.894v1.654h-6.712v-16.313h6.712v1.655h-4.894v5.569h3.986zM389.658 407.167c2.541 0 3.706 1.539 3.706 4.055v8.227c0 2.494-1.165 4.031-3.706 4.031h-3.822v-16.313h3.822zm-.023 14.659c1.304 0 1.933-.816 1.933-2.308v-8.389c0-1.492-.629-2.307-1.957-2.307h-1.958v13.004h1.982z"/><defs><path id="a" d="M88.234 152.819H314.07v244.215H88.234z"/></defs><clipPath id="b"><use xlink:href="#a" style="overflow:visible"/></clipPath><g style="clip-path:url(#b)"><path style="fill:#b2b2b2;stroke:#263238;stroke-width:1.1483;stroke-linecap:round;stroke-linejoin:round;stroke-miterlimit:10" d="M253.369 203.862s2.803 5.256 2.803 13.314c0 8.059-3.854 15.767-2.803 18.921 1.051 3.153 1.407 14.264-.76 16.432-1.239 1.239-6.503-.361-6.503-.361s-1.402 4.205-2.803 4.205-5.256-.701-6.657 1.752c-1.402 2.453.701 5.256-.701 6.657-1.401 1.401-3.153 2.453-3.153 2.453s-3.716 3.382-6.168 3.382c-2.453 0-14.55-8.52-14.55-8.52s-9.23 5.92-13.085 8.723c-3.854 2.803-5.989 12.418-5.989 12.418s-20.776-14.746-17.273-28.41c3.504-13.665 44.706-33.094 58.02-40.803 13.316-7.711 19.622-10.163 19.622-10.163z"/><path style="fill:none;stroke:#263238;stroke-width:2.2966;stroke-linecap:round;stroke-linejoin:round;stroke-miterlimit:10" d="M250.216 232.242s1.185-5.434-3.72-5.434M245.563 221.212c-.489-.937 4.838-3.957 8.628-.699"/><path style="fill:#263238" d="M249.623 232.078c-.613 1.277-1.675 2.041-2.372 1.706-.696-.335-.764-1.641-.15-2.918.614-1.277 1.676-2.04 2.372-1.706.696.335.763 1.641.15 2.918z"/><path style="fill:#fff;stroke:#263238;stroke-width:1.1483;stroke-linecap:round;stroke-linejoin:round;stroke-miterlimit:10" d="M213.614 246.727a2.78 2.78 0 1 1-5.56 0 2.78 2.78 0 0 1 5.56 0zM210.834 249.507v9.81M210.671 256.047s-4.251 12.099-3.597 13.08c.654.981 7.685.491 8.175 0 .49-.49-4.578-13.08-4.578-13.08z"/><path style="fill:#b2b2b2;stroke:#263238;stroke-width:1.1483;stroke-linecap:round;stroke-miterlimit:10" d="M229.421 301.441s8.734 5.635 6.48 5.917c-2.254.282-5.072-.282-7.326-1.69-2.254-1.409-4.79-1.69-6.762-1.69h-5.635s2.254-3.944 5.072-4.508 8.171 1.971 8.171 1.971z"/><path style="fill:#b2b2b2;stroke:#263238;stroke-width:1.1483;stroke-linecap:round;stroke-miterlimit:10" d="M228.857 296.933s11.833 5.635 11.551 7.044c-.282 1.409-.845 1.69-3.944 1.409-3.099-.282-9.298-3.944-9.298-3.944l-7.044-1.127c.001-.001 4.227-6.2 8.735-3.382z"/><path style="fill:#b2b2b2;stroke:#263238;stroke-width:1.1483;stroke-linecap:round;stroke-miterlimit:10" d="M199.274 300.314s11.27-5.917 13.806-7.325c2.536-1.409 7.607-.845 11.27-.845s15.496.282 16.059 2.536c.564 2.254-3.381 2.817-7.325 2.817-3.944 0-7.325-.563-10.425 2.817-3.099 3.381-4.79 7.889-4.79 7.889s5.353 1.127 9.016 1.127c3.663 0 9.298 1.409 8.734 3.099-.563 1.69-1.972 3.381-6.48 2.817-4.508-.563-10.706.282-15.496.564-4.79.282-12.115-1.127-12.115-1.127l-2.254-14.369z"/><path style="fill:#545454;stroke:#263238;stroke-width:1.1483;stroke-linecap:round;stroke-miterlimit:10" d="M203.414 280.802s3.024 0 .907 6.653-3.326 19.354-3.326 19.354l-9.677-32.055 12.096 6.048z"/><path style="fill:#c6ff00;stroke:#263238;stroke-width:1.1483;stroke-linecap:round;stroke-linejoin:round;stroke-miterlimit:10" d="M196.566 276.149s-11.093-12.512-22.292-17.931-31.851 10.206-41.966 25.741c-10.115 15.534-32.333 93.929-38.836 108.741s18.605 24.205 46.423 27.456c27.817 3.251 49.855-14.451 55.996-26.011 6.142-11.56 8.309-47.687 7.225-71.53s-1.853-37.796-6.55-46.466z"/><path style="fill:#c6ff00;stroke:#263238;stroke-width:1.1483;stroke-linecap:round;stroke-linejoin:round;stroke-miterlimit:10" d="M167.219 319.227c2.124 11.445 14.976 71.01 15.666 72.388.723 1.445 6.227 16.627 27.095 13.367 11.561-1.806 17.702-6.864 23.482-13.005 5.78-6.142 25.288-40.1 25.288-40.1s2.168-.361 7.226-3.252c3.28-1.874 8.414-6.821 12.396-5.937 3.253.722 6.639.714 9.952.614 2.719-.082 5.94-.206 7.998-2.263 1.691-1.691-1.854-1.382-2.8-1.461-2.996-.251-5.754-1.397-8.635-2.15-.905-.237-4.304-1.524-5.183-1.085 0 0 1.445-.723 2.529-1.445 1.084-.723 2.857-.606 5.024-.606 1.372 0 3.56.128 5.673-.147.873-.013 10.393-1.403 7.829-3.975-.791-.788-3.122-.695-4.138-.833-5.325-.723-10.264-.784-15.617-.304l6.539-2.735c1.397-.194 2.855-.249 4.194-.257a26.97 26.97 0 0 0 2.628.007c1.598-.001 5.53-.554 6.325-2.138 1.272-2.536-9.588-3.689-11.159-3.689-1.706 0-9.665.995-10.091.995 0 0-.637.118-1.609.315h-.295s7.587-2.168 10.838-2.168c3.251 0 7.587 1.084 8.67-2.168 1.084-3.251-7.225-2.168-14.451-1.806-7.225.361-12.283 4.697-16.618 8.309-4.335 3.613-12.644 19.147-21.676 27.095-9.032 7.948-27.818 15.173-27.818 15.173s-10.858-61.453-15.555-79.155c-4.697-17.702-16.962-22.292-16.962-22.292"/><path style="fill:#263238;stroke:#263238;stroke-width:1.1483;stroke-linecap:round;stroke-linejoin:round;stroke-miterlimit:10" d="M288.324 343.301c2.719-.082 5.94-.206 7.998-2.263 1.691-1.691-1.854-1.382-2.8-1.461-2.997-.251-5.754-1.397-8.635-2.15-.905-.237-4.304-1.524-5.183-1.085 0 0 1.445-.723 2.529-1.445 1.084-.723 2.857-.606 5.024-.606 1.372 0 3.56.128 5.673-.147.873-.013 10.393-1.402 7.829-3.974-.791-.788-3.122-.695-4.138-.833-5.325-.723-10.264-.784-15.617-.304l6.539-2.735c1.397-.194 2.855-.249 4.194-.257a26.97 26.97 0 0 0 2.628.007c1.598-.001 5.53-.554 6.325-2.139 1.272-2.536-9.588-3.688-11.159-3.688-1.706 0-9.665.995-10.091.995 0 0-.637.118-1.609.315h-.295s7.587-2.168 10.838-2.168c3.251 0 7.587 1.084 8.67-2.168 1.084-3.251-7.225-2.168-14.451-1.806-7.225.361-12.283 4.697-16.618 8.309-4.335 3.613-12.644 19.147-21.676 27.095-9.032 7.948-27.818 15.173-27.818 15.173s-5.062-27.673-9.767-50.845c-17.826 3.668-29.901 13.862-36.15 20.525 4.55 21.661 11.806 54.943 12.319 55.969.723 1.445 6.227 16.627 27.095 13.367 11.561-1.806 17.702-6.864 23.482-13.005 5.78-6.142 25.288-40.1 25.288-40.1s2.168-.361 7.226-3.252c3.28-1.874 8.414-6.821 12.396-5.937 3.255.722 6.641.714 9.954.613z"/><path style="fill:#b2b2b2;stroke:#263238;stroke-width:1.1483;stroke-linecap:round;stroke-linejoin:round;stroke-miterlimit:10" d="M296.621 329.336c-5.325-.723-10.264-.784-15.617-.304l6.539-2.735c1.397-.194 2.855-.249 4.194-.257a26.97 26.97 0 0 0 2.628.007c1.598-.001 5.53-.554 6.325-2.139 1.272-2.536-9.588-3.688-11.159-3.688-1.706 0-9.665.995-10.091.995 0 0-.637.118-1.609.315h-.295s7.587-2.168 10.838-2.168c3.251 0 7.587 1.084 8.67-2.168 1.084-3.251-7.225-2.168-14.451-1.806-7.225.361-12.283 4.697-16.618 8.309-4.335 3.613-12.644 19.147-21.676 27.095-9.032 7.948-27.818 15.173-27.818 15.173s-4.162-22.753-8.446-44.273c-19.675 3.381-31.303 14.4-36.164 20.142 4.512 21.279 10.546 48.848 11.013 49.781.723 1.445 6.227 16.627 27.095 13.367 11.561-1.806 17.702-6.864 23.482-13.005 5.78-6.142 25.288-40.1 25.288-40.1s2.168-.361 7.226-3.252c3.28-1.874 8.414-6.821 12.396-5.937 3.253.722 6.639.714 9.952.613 2.719-.082 5.94-.206 7.998-2.263 1.691-1.691-1.854-1.382-2.8-1.461-2.997-.251-5.754-1.397-8.635-2.15-.905-.237-4.304-1.524-5.183-1.085 0 0 1.445-.723 2.529-1.445 1.084-.723 2.857-.606 5.024-.606 1.372 0 3.56.128 5.673-.147.873-.013 10.393-1.402 7.829-3.974-.79-.789-3.12-.696-4.137-.834z"/><path style="fill:#fff;stroke:#263238;stroke-width:1.1483;stroke-linecap:round;stroke-linejoin:round;stroke-miterlimit:10" d="m216.483 365.965 3.793 18.606"/><defs><path id="c" d="M203.414 280.802s-15.652-4.069-25.948-.276c-10.296 3.793-39.016 142.519-39.016 142.519s-30.888-1.626-39.559-18.424c0 0 46.061-111.631 55.815-130.055 9.754-18.425 25.868-15.378 25.868-15.378l22.84 21.614z"/></defs><use xlink:href="#c" style="overflow:visible;fill:#c6ff00"/><clipPath id="d"><use xlink:href="#c" style="overflow:visible"/></clipPath><path style="clip-path:url(#d);fill:#c6ff00" d="M203.414 280.802s-15.652-4.069-25.948-.276c-10.296 3.793-39.016 142.519-39.016 142.519s-30.888-1.626-39.559-18.424c0 0 46.061-111.631 55.815-130.055 9.754-18.425 25.868-15.378 25.868-15.378l22.84 21.614z"/><path style="opacity:.5;clip-path:url(#d);fill:#fff" d="M203.414 280.802s-15.652-4.069-25.948-.276c-10.296 3.793-39.016 142.519-39.016 142.519s-30.888-1.626-39.559-18.424c0 0 46.061-111.631 55.815-130.055 9.754-18.425 25.868-15.378 25.868-15.378l22.84 21.614z"/><use xlink:href="#c" style="overflow:visible;fill:none;stroke:#263238;stroke-width:1.1483;stroke-linecap:round;stroke-linejoin:round;stroke-miterlimit:10"/><path style="fill:#fff;stroke:#263238;stroke-width:1.1483;stroke-linecap:round;stroke-linejoin:round;stroke-miterlimit:10" d="M318.357 392.699h33.6v4.335h-33.6z"/><path style="fill:#263238;stroke:#263238;stroke-width:1.1483;stroke-linecap:round;stroke-linejoin:round;stroke-miterlimit:10" d="M256.944 203.758s-4.335 15.173-25.288 25.289c-20.954 10.115-29.624 16.257-35.404 20.953-5.78 4.696-9.754 11.922-23.482 3.613-13.728-8.309-11.561-37.572-6.864-52.383 4.697-14.812 16.618-31.43 43.352-30.708s49.855 17.702 50.938 24.566c1.084 6.863-3.252 8.67-3.252 8.67z"/><path style="fill:#fff" d="M188.813 196.914c0 2.81-2.495 5.089-5.573 5.089-3.078 0-5.573-2.278-5.573-5.089s2.495-5.088 5.573-5.088c3.077-.001 5.573 2.278 5.573 5.088z"/><path style="fill:#263238;stroke:#263238;stroke-width:1.1483;stroke-linecap:round;stroke-linejoin:round;stroke-miterlimit:10" d="M183.427 211.653s3.356-10.231-4.383-12.964c-7.739-2.734-8.188 3.651-29.004 12.741-20.816 9.09-34.975 12.47-38.891 23.397-3.916 10.927 3.998 16.707 3.998 16.707s-15.687 7.377-18.676 18.783c-2.989 11.406 6.308 23.391 27.973 28.395 21.665 5.004 37.307-4.648 42.195-12.821 4.888-8.172 6.282-18.995 6.282-18.995s5.5 5.517 12.216-8.89c6.715-14.406-1.71-46.353-1.71-46.353z"/><g style="opacity:.25"><path style="fill:none;stroke:#fff;stroke-width:1.1483;stroke-linecap:round;stroke-linejoin:round;stroke-miterlimit:10" d="M189.388 250.361c3.251-13.728-5.058-49.132-5.058-49.132M154.405 294.564c-14.637 3.202-24.993-14.234-14.831-25.54 3.586-3.99 9.26-5.988 14.555-5.127 3.024.492 6.123 2.101 7.267 4.943.798 1.982.517 4.259-.241 6.257-2.335 6.158-17.896 14.217-17.896 2.506 0-5.331 7.937-10.532 9.692-6.785 1.756 3.748.485 6.3-2.423 6.3"/><path style="fill:none;stroke:#fff;stroke-width:1.1483;stroke-linecap:round;stroke-linejoin:round;stroke-miterlimit:10" d="M157.313 238.348c-3.877 0-5.815 9.692.969 10.662 6.785.969 17.559-3.165 9.692-13.085-3.926-4.951-20.839-7.269-25.685 1.939s.969 20.838 16.962 23.262c10.852 1.644 25.422-1.588 26.168-15.023.485-8.723.485-36.831.485-36.831"/><path style="fill:none;stroke:#fff;stroke-width:1.1483;stroke-linecap:round;stroke-linejoin:round;stroke-miterlimit:10" d="M135.505 230.595s-16.961 10.177-11.631 20.354c5.331 10.177 28.592 8.723 28.592 8.723"/><path style="fill:none;stroke:#fff;stroke-width:1.1483;stroke-linecap:round;stroke-linejoin:round;stroke-miterlimit:10" d="M127.751 255.31s-18.9 2.423-15.992 20.839"/></g></g><path style="fill:none;stroke:#263238;stroke-width:1.1483;stroke-linecap:round;stroke-linejoin:round;stroke-miterlimit:10" d="M62.736 397.121h365.087"/></svg>